<svg width="120" height="37" viewBox="0 0 120 37" fill="none" xmlns="http://www.w3.org/2000/svg">
<g clip-path="url(#clip0_4890_22318)">
<g clip-path="url(#clip1_4890_22318)">
<g clip-path="url(#clip2_4890_22318)">
<path d="M21.75 11.0391H2.25C1.14543 11.0391 0.25 11.9345 0.25 13.0391V24.5391C0.25 25.6436 1.14543 26.5391 2.25 26.5391H21.75C22.8546 26.5391 23.75 25.6436 23.75 24.5391V13.0391C23.75 11.9345 22.8546 11.0391 21.75 11.0391Z" fill="white" stroke="black" stroke-opacity="0.2" stroke-width="0.5"/>
<path d="M2.78773 16.7035C2.26459 16.4166 1.66754 16.1858 1 16.0257L1.028 15.9009H3.76498C4.13596 15.9139 4.43699 16.0256 4.53495 16.4198L5.12977 19.2557L5.31198 20.1098L6.97797 15.9009H8.77679L6.10288 22.0666H4.30397L2.78773 16.7035ZM10.1 22.0731H8.39883L9.46285 15.9009H11.1639L10.1 22.0731ZM16.2668 16.0518L16.0354 17.3846L15.8816 17.3191C15.5737 17.1943 15.1674 17.0696 14.6144 17.0828C13.9427 17.0828 13.6415 17.3518 13.6345 17.6145C13.6345 17.9035 13.9989 18.0939 14.5939 18.3763C15.574 18.8162 16.0286 19.3546 16.0218 20.0573C16.0081 21.3377 14.846 22.1651 13.0611 22.1651C12.2979 22.1585 11.5628 22.0072 11.1638 21.8366L11.4019 20.4511L11.6259 20.5497C12.1789 20.7798 12.5428 20.878 13.222 20.878C13.7118 20.878 14.2369 20.6874 14.2436 20.2739C14.2436 20.0047 14.0199 19.8076 13.3617 19.5055C12.7178 19.2099 11.8568 18.7175 11.8708 17.831C11.8781 16.6295 13.0611 15.7891 14.741 15.7891C15.399 15.7891 15.9312 15.927 16.2668 16.0518ZM18.5278 19.8865H19.9417C19.8718 19.578 19.5496 18.1005 19.5496 18.1005L19.4307 17.5687C19.3467 17.7985 19.1999 18.1728 19.2069 18.1596C19.2069 18.1596 18.6678 19.532 18.5278 19.8865ZM20.6276 15.9009L22 22.073H20.4249C20.4249 22.073 20.2708 21.3639 20.2219 21.1472H18.0378C17.9746 21.3113 17.6808 22.073 17.6808 22.073H15.8958L18.4226 16.4131C18.5977 16.0125 18.906 15.9009 19.3118 15.9009H20.6276Z" fill="#1434CB"/>
</g>
</g>
</g>
<g clip-path="url(#clip3_4890_22318)">
<g clip-path="url(#clip4_4890_22318)">
<g clip-path="url(#clip5_4890_22318)">
<path d="M50 10.7891H30C28.8954 10.7891 28 11.6845 28 12.7891V24.7891C28 25.8936 28.8954 26.7891 30 26.7891H50C51.1046 26.7891 52 25.8936 52 24.7891V12.7891C52 11.6845 51.1046 10.7891 50 10.7891Z" fill="#252525"/>
<path d="M37 23.7891C39.7614 23.7891 42 21.5505 42 18.7891C42 16.0276 39.7614 13.7891 37 13.7891C34.2386 13.7891 32 16.0276 32 18.7891C32 21.5505 34.2386 23.7891 37 23.7891Z" fill="#EB001B"/>
<path d="M43 23.7891C45.7614 23.7891 48 21.5505 48 18.7891C48 16.0276 45.7614 13.7891 43 13.7891C40.2386 13.7891 38 16.0276 38 18.7891C38 21.5505 40.2386 23.7891 43 23.7891Z" fill="#F79E1B"/>
<path fill-rule="evenodd" clip-rule="evenodd" d="M40 14.7891C41.2144 15.7013 42 17.1536 42 18.7894C42 20.4252 41.2144 21.8776 40 22.7898C38.7856 21.8776 38 20.4252 38 18.7894C38 17.1536 38.7856 15.7013 40 14.7891Z" fill="#FF5F00"/>
</g>
</g>
</g>
<g clip-path="url(#clip6_4890_22318)">
<g clip-path="url(#clip7_4890_22318)">
<g clip-path="url(#clip8_4890_22318)">
<path d="M78 10.7891H58C56.8954 10.7891 56 11.6845 56 12.7891V24.7891C56 25.8936 56.8954 26.7891 58 26.7891H78C79.1046 26.7891 80 25.8936 80 24.7891V12.7891C80 11.6845 79.1046 10.7891 78 10.7891Z" fill="#016FD0"/>
<path fill-rule="evenodd" clip-rule="evenodd" d="M69.7637 24.1819V18.4805L79.9112 18.4896V20.0645L78.7383 21.3179L79.9112 22.5827V24.1911H78.0386L77.0434 23.0929L76.0553 24.1952L69.7637 24.1819Z" fill="#FFFFFE"/>
<path fill-rule="evenodd" clip-rule="evenodd" d="M70.4414 23.5583V19.1094H74.2137V20.1343H71.6628V20.8299H74.1529V21.8378H71.6628V22.5211H74.2137V23.5583H70.4414Z" fill="#016FD0"/>
<path fill-rule="evenodd" clip-rule="evenodd" d="M74.1954 23.5582L76.2827 21.3312L74.1953 19.1094H75.811L77.0865 20.5194L78.3656 19.1094H79.9117V19.1444L77.8689 21.3312L79.9117 23.4951V23.5582H78.35L77.0519 22.134L75.7671 23.5582H74.1954Z" fill="#016FD0"/>
<path fill-rule="evenodd" clip-rule="evenodd" d="M70.2369 13.4219H72.6829L73.5421 15.3727V13.4219H76.5619L77.0827 14.8834L77.6052 13.4219H79.9111V19.1233H67.7246L70.2369 13.4219Z" fill="#FFFFFE"/>
<path fill-rule="evenodd" clip-rule="evenodd" d="M70.7006 14.0391L68.7266 18.4842H70.0805L70.4529 17.5941H72.4708L72.843 18.4842H74.2306L72.2648 14.0391H70.7006ZM70.8702 16.5965L71.4622 15.1814L72.0538 16.5965H70.8702Z" fill="#016FD0"/>
<path fill-rule="evenodd" clip-rule="evenodd" d="M74.2119 18.4841V14.0391L76.115 14.0456L77.0943 16.7783L78.0799 14.0391H79.9115V18.4841L78.7329 18.4946V15.4412L77.6204 18.4841H76.5446L75.4089 15.4308V18.4841H74.2119Z" fill="#016FD0"/>
</g>
</g>
</g>
<g clip-path="url(#clip9_4890_22318)">
<g clip-path="url(#clip10_4890_22318)">
<g clip-path="url(#clip11_4890_22318)">
<path d="M84.2051 26.7891H88.7229C89.7507 26.7891 90.9819 25.5944 90.9819 24.6557V10.7891H86.464C85.4362 10.7891 84.2051 11.9837 84.2051 13.9891V26.7891Z" fill="#047AB1"/>
<path d="M86.769 21.6038C85.9016 21.6039 85.0386 21.489 84.2051 21.2624V20.0891C84.8519 20.4668 85.5912 20.6799 86.3511 20.7078C87.2207 20.7078 87.7064 20.1318 87.7064 19.3424V16.1211H89.8524V19.3424C89.8524 20.6011 89.1521 21.6038 86.769 21.6038Z" fill="white"/>
<path d="M92.1113 26.7891H96.6292C97.657 26.7891 98.8881 25.5944 98.8881 24.6557V10.7891H94.3703C93.3424 10.7891 92.1113 11.9837 92.1113 13.9891V26.7891Z" fill="#D42D06"/>
<path d="M92.1113 16.8701C92.7664 16.2728 93.8959 15.8994 95.7256 15.9848C96.7195 16.0274 97.7586 16.3048 97.7586 16.3048V17.4888C97.1643 17.1493 96.4963 16.9414 95.8047 16.8808C94.4154 16.7634 93.5683 17.4994 93.5683 18.7901C93.5683 20.0808 94.4154 20.8168 95.8047 20.7101C96.4967 20.644 97.1643 20.4326 97.7586 20.0914V21.2648C97.7586 21.2648 96.7195 21.5528 95.7256 21.5954C93.8959 21.6808 92.7664 21.3074 92.1113 20.7101V16.8701Z" fill="white"/>
<path d="M100.018 26.7891H104.535C105.563 26.7891 106.794 25.5944 106.794 24.6557V10.7891H102.277C101.249 10.7891 100.018 11.9837 100.018 13.9891V26.7891Z" fill="#67B637"/>
<path d="M105.665 20.0678C105.665 20.9211 104.965 21.4544 104.027 21.4544H100.018V16.1211H103.666L103.926 16.1318C104.75 16.1744 105.36 16.6331 105.36 17.4224C105.36 18.0411 104.942 18.5744 104.185 18.7024V18.7344C105.021 18.7878 105.665 19.2891 105.665 20.0678ZM102.785 16.9638C102.736 16.9569 102.687 16.9533 102.638 16.9531H101.283V18.2971H102.785C103.067 18.2331 103.304 17.9878 103.304 17.6251C103.304 17.2624 103.067 17.0171 102.785 16.9638ZM102.954 19.1398C102.894 19.1309 102.834 19.1273 102.773 19.1291H101.283V20.5904H102.773L102.954 20.5691C103.237 20.5051 103.474 20.2278 103.474 19.8544C103.474 19.4811 103.248 19.2144 102.954 19.1398Z" fill="white"/>
</g>
</g>
</g>
<defs>
<clipPath id="clip0_4890_22318">
<rect width="24" height="16" fill="white" transform="translate(0 10.7891)"/>
</clipPath>
<clipPath id="clip1_4890_22318">
<rect width="24" height="16" fill="white" transform="translate(0 10.7891)"/>
</clipPath>
<clipPath id="clip2_4890_22318">
<rect width="24" height="16" fill="white" transform="translate(0 10.7891)"/>
</clipPath>
<clipPath id="clip3_4890_22318">
<rect width="24" height="16" fill="white" transform="translate(28 10.7891)"/>
</clipPath>
<clipPath id="clip4_4890_22318">
<rect width="24" height="16" fill="white" transform="translate(28 10.7891)"/>
</clipPath>
<clipPath id="clip5_4890_22318">
<rect width="24" height="16" fill="white" transform="translate(28 10.7891)"/>
</clipPath>
<clipPath id="clip6_4890_22318">
<rect width="24" height="16" fill="white" transform="translate(56 10.7891)"/>
</clipPath>
<clipPath id="clip7_4890_22318">
<rect width="24" height="16" fill="white" transform="translate(56 10.7891)"/>
</clipPath>
<clipPath id="clip8_4890_22318">
<rect width="24" height="16" fill="white" transform="translate(56 10.7891)"/>
</clipPath>
<clipPath id="clip9_4890_22318">
<rect width="23" height="16" fill="white" transform="translate(84 10.7891)"/>
</clipPath>
<clipPath id="clip10_4890_22318">
<rect width="23" height="16" fill="white" transform="translate(84 10.7891)"/>
</clipPath>
<clipPath id="clip11_4890_22318">
<rect width="23" height="16" fill="white" transform="translate(84 10.7891)"/>
</clipPath>
</defs>
</svg>
