<svg width="25" height="17" viewBox="0 0 25 17" fill="none" xmlns="http://www.w3.org/2000/svg">
<g clip-path="url(#clip0_4890_22379)">
<path opacity="0.2" fill-rule="evenodd" clip-rule="evenodd" d="M17.1406 2.41406H2.15301C1.45237 2.41406 0.629883 3.22148 0.629883 3.9375V15.3633C0.629883 16.0793 1.45237 16.8867 2.15301 16.8867H21.1921C21.8927 16.8867 22.7152 16.0793 22.7152 15.3633V9.62754C22.0736 10.2048 21.2813 10.5878 20.4305 10.732V10.793C20.4305 11.2957 20.1563 11.5547 19.6689 11.5547H2.91457C2.42717 11.5547 2.15301 11.2957 2.15301 10.793V10.0312C2.15301 9.52852 2.42717 9.26953 2.91457 9.26953H16.2648C15.8251 8.78224 15.496 8.20569 15.2999 7.57934C15.1038 6.953 15.0453 6.29166 15.1285 5.64061C15.2116 4.98956 15.4345 4.36417 15.7818 3.80728C16.1291 3.25038 16.5926 2.77513 17.1406 2.41406Z" fill="#565656"/>
<path opacity="0.3" fill-rule="evenodd" clip-rule="evenodd" d="M15.3585 4.69922H0.629883V6.98438H15.1605C15.0326 6.21815 15.1007 5.432 15.3585 4.69922Z" fill="#565656"/>
<path fill-rule="evenodd" clip-rule="evenodd" d="M19.6688 11.5547C18.255 11.5547 16.899 10.9929 15.8993 9.99297C14.8995 8.99302 14.3379 7.6368 14.3379 6.22266C14.3379 4.80851 14.8995 3.45229 15.8993 2.45234C16.899 1.45239 18.255 0.890625 19.6688 0.890625C21.0827 0.890625 22.4386 1.45239 23.4384 2.45234C24.4381 3.45229 24.9998 4.80851 24.9998 6.22266C24.9998 7.6368 24.4381 8.99302 23.4384 9.99297C22.4386 10.9929 21.0827 11.5547 19.6688 11.5547ZM17.5517 4.01367H16.9501L15.4802 4.76016V5.52187L16.6454 4.9125V8.43164H17.5593V4.01367H17.5517ZM19.3033 4.62305C19.7374 4.62305 20.042 4.8668 20.042 5.21719C20.042 5.59805 19.6841 5.86465 19.1662 5.86465H18.9377V6.51211H19.2119C19.7602 6.51211 20.1334 6.78633 20.1334 7.18242C20.1334 7.56328 19.7678 7.82227 19.25 7.82227C18.8692 7.82227 18.4884 7.70039 18.0924 7.46426V8.22598C18.5189 8.40879 18.9453 8.50781 19.3642 8.50781C20.3619 8.50781 21.0473 7.99746 21.0473 7.25859C21.0473 6.74062 20.7274 6.32168 20.1943 6.1541C20.6512 6.00176 20.9483 5.59805 20.9483 5.14102C20.9483 4.425 20.3162 3.9375 19.4023 3.9375C18.9903 3.94207 18.5836 4.03018 18.2066 4.19648V4.94297C18.5722 4.7373 18.9453 4.62305 19.3033 4.62305ZM22.5932 6.28359C23.1492 6.28359 23.5376 6.61113 23.5376 7.03769C23.5376 7.48711 23.1492 7.79941 22.5932 7.79941C22.2581 7.79941 21.9078 7.69277 21.5499 7.47188V8.25645C21.9231 8.42402 22.3038 8.50781 22.677 8.50781C22.875 8.50781 23.0578 8.47734 23.2329 8.43164C23.629 7.78418 23.8574 7.0377 23.8574 6.23789L23.8422 5.91797C23.559 5.75033 23.2344 5.66586 22.9055 5.67422C22.7684 5.67422 22.6237 5.68184 22.4714 5.70469V4.71445H23.568C23.4729 4.47064 23.3557 4.23606 23.2177 4.01367H21.6794V6.41309C21.984 6.33691 22.2886 6.28359 22.5932 6.28359Z" fill="#565656"/>
</g>
<defs>
<clipPath id="clip0_4890_22379">
<rect width="24.37" height="16" fill="white" transform="translate(0.629883 0.890625)"/>
</clipPath>
</defs>
</svg>
