<svg width="24" height="11" viewBox="0 0 24 11" fill="none" xmlns="http://www.w3.org/2000/svg">
<g clip-path="url(#clip0_4890_22444)">
<path d="M2.34974 0.788062H0.745117V10.5206H2.34974V0.788062ZM20.5359 6.99737C21.2336 5.99737 21.908 4.823 22.501 3.57881H20.7102C20.0126 4.93925 19.2336 6.16019 18.4429 7.09044C18.2452 7.33462 18.0359 7.5555 17.8382 7.75319V0.788062H16.2336V8.916C15.9661 9.02062 15.7102 9.07875 15.4777 9.07875C15.0592 9.07875 14.8499 8.75319 14.8499 8.09044V7.32294C14.8614 5.52062 14.8731 4.21831 13.4661 3.62531C13.1172 3.47412 12.5592 3.3695 11.8499 3.66019C10.7336 4.12531 9.64049 5.47412 8.72193 7.02062V3.57875H7.10562V10.5206H8.78005C9.87312 7.8695 11.4312 5.60206 12.4661 5.16019C12.6987 5.06719 12.7917 5.10206 12.8382 5.12531C13.1987 5.27644 13.2569 5.59044 13.2452 7.32294V8.10206C13.2452 9.39275 13.9312 10.695 15.4777 10.695C16.7801 10.695 18.1289 9.90437 19.4894 8.35787L20.7801 10.4276H22.6754L20.5359 6.99737ZM3.9428 10.5211H5.54743V3.57925H3.9428V10.5211ZM4.74512 2.486C5.23962 2.486 5.64043 2.08512 5.64043 1.59069C5.64043 1.09619 5.23962 0.695312 4.74512 0.695312C4.25062 0.695312 3.84974 1.09619 3.84974 1.59069C3.84974 2.08512 4.25062 2.486 4.74512 2.486Z" fill="#1A1A1A" fill-opacity="0.6"/>
</g>
<defs>
<clipPath id="clip0_4890_22444">
<rect width="22.5" height="10" fill="white" transform="translate(0.745117 0.695312)"/>
</clipPath>
</defs>
</svg>
