<svg width="24" height="24" viewBox="0 0 24 24" fill="none" xmlns="http://www.w3.org/2000/svg">
<path d="M0 10C4.69449 10 8.5 5.52284 8.5 0C8.5 5.52284 12.3055 10 17 10C12.3055 10 8.5 14.4772 8.5 20C8.5 14.4772 4.69449 10 0 10Z" fill="url(#paint0_linear_245_6092)"/>
<path d="M15 6.5C17.4853 6.5 19.5 4.48528 19.5 2C19.5 4.48528 21.5147 6.5 24 6.5C21.5147 6.5 19.5 8.51472 19.5 11C19.5 8.51472 17.4853 6.5 15 6.5Z" fill="url(#paint1_linear_245_6092)"/>
<path d="M11 18.5C14.0376 18.5 16.5 16.0376 16.5 13C16.5 16.0376 18.9624 18.5 22 18.5C18.9624 18.5 16.5 20.9624 16.5 24C16.5 20.9624 14.0376 18.5 11 18.5Z" fill="url(#paint2_linear_245_6092)"/>
<defs>
<linearGradient id="paint0_linear_245_6092" x1="10.625" y1="-6.66667" x2="-1.94766" y2="12.4168" gradientUnits="userSpaceOnUse">
<stop stop-color="#FDFDFD"/>
<stop offset="1" stop-color="#1E42FF"/>
</linearGradient>
<linearGradient id="paint1_linear_245_6092" x1="20.625" y1="-1" x2="15.375" y2="8.375" gradientUnits="userSpaceOnUse">
<stop stop-color="#FDFDFD"/>
<stop offset="1" stop-color="#1E42FF"/>
</linearGradient>
<linearGradient id="paint2_linear_245_6092" x1="17.875" y1="9.33333" x2="11.4583" y2="20.7917" gradientUnits="userSpaceOnUse">
<stop stop-color="#FDFDFD"/>
<stop offset="1" stop-color="#1E42FF"/>
</linearGradient>
</defs>
</svg>
