<svg width="16" height="17" viewBox="0 0 16 17" fill="none" xmlns="http://www.w3.org/2000/svg">
<path d="M14 14.1484H2C0.89543 14.1484 0 13.253 0 12.1484V8.14844V4.14844C0 3.04387 0.89543 2.14844 2 2.14844H8H14C15.1046 2.14844 16 3.04387 16 4.14844V12.1484C16 13.253 15.1046 14.1484 14 14.1484Z" fill="#E25950"/>
<path d="M0 11.1484H16V12.1484H0V11.1484ZM14 14.1484H2C1.25972 14.1484 0.613374 13.7462 0.267564 13.1484H15.7324C15.3866 13.7462 14.7403 14.1484 14 14.1484ZM0 9.14844H16V10.1484H0V9.14844ZM8 7.14844H16V8.14844H8V7.14844ZM8 5.14844H16V6.14844H8V5.14844ZM8 3.14844H15.723C15.894 3.44344 16 3.78244 16 4.14844H8V3.14844Z" fill="#F6F9FC"/>
<path opacity="0.1" d="M14 14.1484H2C0.89543 14.1484 0 13.253 0 12.1484V8.14844H1V12.1484C1 12.7007 1.44772 13.1484 2 13.1484H14C14.5523 13.1484 15 12.7007 15 12.1484V4.14844C15 3.59615 14.5523 3.14844 14 3.14844H8V2.14844H14C15.1046 2.14844 16 3.04387 16 4.14844V12.1484C16 13.253 15.1046 14.1484 14 14.1484Z" fill="#E25950"/>
<path d="M0 8.14844V3.86272C0 2.91595 0.795938 2.14844 1.77778 2.14844H8V8.14844H0Z" fill="#43458B"/>
<path d="M7.02551 5.64844C7.02551 5.92458 6.80165 6.14844 6.52551 6.14844C6.24937 6.14844 6.02551 5.92458 6.02551 5.64844C6.02551 5.3723 6.24937 5.14844 6.52551 5.14844C6.80165 5.14844 7.02551 5.3723 7.02551 5.64844ZM5.51782 5.14708C5.33482 5.15398 5.16269 5.06029 5.06914 4.90286C4.97559 4.74542 4.97559 4.54945 5.06914 4.39202C5.16269 4.23458 5.33482 4.14089 5.51782 4.14779C5.78644 4.15792 5.99898 4.37863 5.99898 4.64744C5.99898 4.91625 5.78644 5.13695 5.51782 5.14708ZM5.02551 5.64844C5.02551 5.92458 4.80165 6.14844 4.52551 6.14844C4.24937 6.14844 4.02551 5.92458 4.02551 5.64844C4.02551 5.3723 4.24937 5.14844 4.52551 5.14844C4.80165 5.14844 5.02551 5.3723 5.02551 5.64844ZM3.51782 5.14708C3.33482 5.15398 3.16269 5.06029 3.06914 4.90286C2.97559 4.74542 2.97559 4.54945 3.06914 4.39202C3.16269 4.23458 3.33482 4.14089 3.51782 4.14779C3.78644 4.15792 3.99898 4.37863 3.99898 4.64744C3.99898 4.91625 3.78644 5.13695 3.51782 5.14708ZM3.02551 5.64844C3.02551 5.92458 2.80165 6.14844 2.52551 6.14844C2.24937 6.14844 2.02551 5.92458 2.02551 5.64844C2.02551 5.3723 2.24937 5.14844 2.52551 5.14844C2.80165 5.14844 3.02551 5.3723 3.02551 5.64844ZM7.02551 3.64844C7.02551 3.92458 6.80165 4.14844 6.52551 4.14844C6.24937 4.14844 6.02551 3.92458 6.02551 3.64844C6.02551 3.3723 6.24937 3.14844 6.52551 3.14844C6.80165 3.14844 7.02551 3.3723 7.02551 3.64844ZM5.02551 3.64844C5.02551 3.92458 4.80165 4.14844 4.52551 4.14844C4.24937 4.14844 4.02551 3.92458 4.02551 3.64844C4.02551 3.3723 4.24937 3.14844 4.52551 3.14844C4.80165 3.14844 5.02551 3.3723 5.02551 3.64844ZM3.02551 3.64844C3.02551 3.92458 2.80165 4.14844 2.52551 4.14844C2.24937 4.14844 2.02551 3.92458 2.02551 3.64844C2.02551 3.3723 2.24937 3.14844 2.52551 3.14844C2.80165 3.14844 3.02551 3.3723 3.02551 3.64844ZM1.51885 5.14908C1.33585 5.15598 1.16372 5.06229 1.07016 4.90486C0.976612 4.74743 0.976612 4.55145 1.07016 4.39401C1.16372 4.23658 1.33585 4.14289 1.51885 4.14979C1.78747 4.15993 2 4.38063 2 4.64944C2 4.91824 1.78747 5.13894 1.51885 5.14908ZM1.53305 6.1478C1.71605 6.14103 1.88812 6.23484 1.98155 6.39234C2.07499 6.54984 2.07485 6.74581 1.98119 6.90318C1.88753 7.06054 1.71533 7.15411 1.53234 7.14708C1.26373 7.13677 1.05134 6.91591 1.05153 6.6471C1.05172 6.37829 1.26442 6.15773 1.53305 6.1478ZM3.53305 6.1478C3.71605 6.14103 3.88812 6.23484 3.98155 6.39234C4.07499 6.54984 4.07485 6.74581 3.98119 6.90318C3.88753 7.06054 3.71533 7.15411 3.53234 7.14708C3.26373 7.13677 3.05134 6.91591 3.05153 6.6471C3.05172 6.37829 3.26442 6.15773 3.53305 6.1478ZM5.53305 6.1478C5.71605 6.14103 5.88812 6.23484 5.98155 6.39234C6.07499 6.54984 6.07485 6.74581 5.98119 6.90318C5.88753 7.06054 5.71533 7.15411 5.53234 7.14708C5.26373 7.13677 5.05134 6.91591 5.05153 6.6471C5.05172 6.37829 5.26442 6.15773 5.53305 6.1478Z" fill="white"/>
<path opacity="0.5" fill-rule="evenodd" clip-rule="evenodd" d="M6.53305 7.1488C6.71605 7.14203 6.88812 7.23585 6.98155 7.39334C7.07499 7.55084 7.07485 7.74682 6.98119 7.90418C6.88753 8.06154 6.71533 8.15512 6.53234 8.14809C6.26373 8.13777 6.05134 7.91691 6.05153 7.6481C6.05172 7.37929 6.26442 7.15874 6.53305 7.1488ZM4.53305 7.1488C4.71605 7.14203 4.88812 7.23585 4.98155 7.39334C5.07499 7.55084 5.07485 7.74682 4.98119 7.90418C4.88753 8.06154 4.71533 8.15512 4.53234 8.14809C4.26373 8.13777 4.05134 7.91691 4.05153 7.6481C4.05172 7.37929 4.26442 7.15874 4.53305 7.1488ZM2.53305 7.1488C2.71605 7.14203 2.88812 7.23585 2.98155 7.39334C3.07499 7.55084 3.07485 7.74682 2.98119 7.90418C2.88753 8.06154 2.71533 8.15512 2.53234 8.14809C2.26373 8.13777 2.05134 7.91691 2.05153 7.6481C2.05172 7.37929 2.26442 7.15874 2.53305 7.1488ZM0.481517 7.14878C0.66452 7.14201 0.836583 7.23583 0.93002 7.39332C1.02346 7.55082 1.02332 7.7468 0.929657 7.90416C0.835996 8.06153 0.6638 8.1551 0.480807 8.14807C0.212193 8.13775 -0.000190925 7.91689 1.28798e-07 7.64808C0.000191182 7.37927 0.212889 7.15872 0.481517 7.14878ZM0.481517 5.14878C0.66452 5.14201 0.836583 5.23583 0.93002 5.39332C1.02346 5.55082 1.02332 5.7468 0.929657 5.90416C0.835996 6.06153 0.6638 6.1551 0.480807 6.14807C0.212193 6.13775 -0.000190925 5.91689 1.28798e-07 5.64808C0.000191182 5.37927 0.212889 5.15872 0.481517 5.14878ZM0.481517 3.14878C0.66452 3.14201 0.836583 3.23583 0.93002 3.39332C1.02346 3.55082 1.02332 3.7468 0.929657 3.90416C0.835996 4.06153 0.6638 4.1551 0.480807 4.14807C0.212193 4.13775 -0.000190925 3.91689 1.28798e-07 3.64808C0.000191182 3.37927 0.212889 3.15872 0.481517 3.14878ZM1.48152 2.14878C1.66452 2.14201 1.83658 2.23583 1.93002 2.39332C2.02346 2.55082 2.02332 2.7468 1.92966 2.90416C1.836 3.06153 1.6638 3.1551 1.48081 3.14807C1.21219 3.13775 0.999809 2.91689 1 2.64808C1.00019 2.37927 1.21289 2.15872 1.48152 2.14878ZM3.48152 2.14878C3.66452 2.14201 3.83658 2.23583 3.93002 2.39332C4.02346 2.55082 4.02332 2.7468 3.92966 2.90416C3.836 3.06153 3.6638 3.1551 3.48081 3.14807C3.21219 3.13775 2.99981 2.91689 3 2.64808C3.00019 2.37927 3.21289 2.15872 3.48152 2.14878ZM5.48152 2.14878C5.66452 2.14201 5.83658 2.23583 5.93002 2.39332C6.02346 2.55082 6.02332 2.7468 5.92966 2.90416C5.836 3.06153 5.6638 3.1551 5.48081 3.14807C5.21219 3.13775 4.99981 2.91689 5 2.64808C5.00019 2.37927 5.21289 2.15872 5.48152 2.14878ZM7.48152 2.14878C7.66452 2.14201 7.83658 2.23583 7.93002 2.39332C8.02346 2.55082 8.02332 2.7468 7.92966 2.90416C7.836 3.06153 7.6638 3.1551 7.48081 3.14807C7.21219 3.13775 6.99981 2.91689 7 2.64808C7.00019 2.37927 7.21289 2.15872 7.48152 2.14878ZM7.48152 4.14878C7.66452 4.14201 7.83658 4.23583 7.93002 4.39332C8.02346 4.55082 8.02332 4.7468 7.92966 4.90416C7.836 5.06153 7.6638 5.1551 7.48081 5.14807C7.21219 5.13775 6.99981 4.91689 7 4.64808C7.00019 4.37927 7.21289 4.15872 7.48152 4.14878ZM7.48152 6.14878C7.66452 6.14201 7.83658 6.23583 7.93002 6.39332C8.02346 6.55082 8.02332 6.7468 7.92966 6.90416C7.836 7.06153 7.6638 7.1551 7.48081 7.14807C7.21219 7.13775 6.99981 6.91689 7 6.64808C7.00019 6.37927 7.21289 6.15872 7.48152 6.14878Z" fill="white"/>
</svg>
