<svg width="196" height="59" viewBox="0 0 196 59" fill="none" xmlns="http://www.w3.org/2000/svg">
<path d="M69.9327 23.7982L66.3694 24.1869C66.2686 23.827 66.0922 23.4886 65.8402 23.1719C65.5955 22.8552 65.2644 22.5996 64.8468 22.4052C64.4293 22.2109 63.9182 22.1137 63.3135 22.1137C62.5 22.1137 61.8162 22.2901 61.2619 22.6428C60.7148 22.9955 60.4448 23.4527 60.452 24.0142C60.4448 24.4965 60.6212 24.8888 60.9811 25.1911C61.3483 25.4935 61.9529 25.7418 62.7952 25.9362L65.6243 26.5409C67.1936 26.8792 68.3598 27.4155 69.1229 28.1498C69.8931 28.8841 70.2818 29.8451 70.289 31.0329C70.2818 32.0767 69.9759 32.9981 69.3712 33.7972C68.7737 34.5891 67.9423 35.2081 66.8769 35.6545C65.8115 36.1008 64.5877 36.3239 63.2055 36.3239C61.1755 36.3239 59.5414 35.8992 58.3032 35.0498C57.065 34.1931 56.3272 33.0017 56.0896 31.4756L59.9013 31.1085C60.0741 31.8571 60.4412 32.4222 61.0027 32.8038C61.5642 33.1853 62.2949 33.3761 63.1947 33.3761C64.1234 33.3761 64.8684 33.1853 65.4299 32.8038C65.9986 32.4222 66.283 31.9507 66.283 31.3892C66.283 30.9141 66.0994 30.5218 65.7323 30.2122C65.3723 29.9027 64.8108 29.6651 64.0478 29.4996L61.2187 28.9057C59.6278 28.5745 58.4508 28.0166 57.6877 27.232C56.9247 26.4401 56.5467 25.4395 56.5539 24.2301C56.5467 23.2079 56.8239 22.3225 57.3854 21.5738C57.9541 20.8179 58.7423 20.2348 59.7501 19.8245C60.7652 19.407 61.935 19.1982 63.2595 19.1982C65.2032 19.1982 66.7329 19.6121 67.8487 20.44C68.9717 21.2678 69.6664 22.3872 69.9327 23.7982ZM81.9551 29.0245V19.4142H85.864V36H82.0738V33.0521H81.9011C81.5267 33.9808 80.9112 34.7402 80.0546 35.3305C79.2052 35.9208 78.1577 36.216 76.9124 36.216C75.8254 36.216 74.8643 35.9748 74.0293 35.4925C73.2014 35.003 72.5535 34.2939 72.0856 33.3653C71.6177 32.4294 71.3838 31.2992 71.3838 29.9747V19.4142H75.2927V29.37C75.2927 30.421 75.5806 31.2561 76.1565 31.8751C76.7324 32.4942 77.4883 32.8038 78.4241 32.8038C79 32.8038 79.5579 32.6634 80.0978 32.3827C80.6377 32.1019 81.0804 31.6844 81.426 31.1301C81.7787 30.5686 81.9551 29.8667 81.9551 29.0245ZM87.755 36V19.4142H91.5451V22.1785H91.7179C92.0203 21.2211 92.5386 20.4832 93.2728 19.9649C94.0143 19.4394 94.8601 19.1766 95.8104 19.1766C96.0263 19.1766 96.2675 19.1874 96.5338 19.209C96.8074 19.2234 97.0341 19.2486 97.2141 19.2846V22.8804C97.0485 22.8228 96.7858 22.7724 96.4259 22.7292C96.0731 22.6788 95.7312 22.6536 95.4 22.6536C94.6874 22.6536 94.0467 22.8084 93.478 23.1179C92.9165 23.4203 92.4738 23.8414 92.1498 24.3813C91.8259 24.9212 91.6639 25.5439 91.6639 26.2494V36H87.755ZM113.002 19.4142L107.096 36H102.777L96.87 19.4142H101.038L104.85 31.7348H105.023L108.845 19.4142H113.002ZM120.357 36.3239C118.694 36.3239 117.258 35.9784 116.049 35.2873C114.847 34.5891 113.922 33.6028 113.274 32.3287C112.626 31.0473 112.302 29.5392 112.302 27.8043C112.302 26.0982 112.626 24.6008 113.274 23.3123C113.929 22.0165 114.843 21.0087 116.016 20.2888C117.19 19.5618 118.568 19.1982 120.152 19.1982C121.174 19.1982 122.139 19.3638 123.046 19.6949C123.96 20.0189 124.766 20.5228 125.465 21.2067C126.17 21.8905 126.724 22.7616 127.128 23.8198C127.531 24.8708 127.732 26.1234 127.732 27.5775V28.7761H114.137V26.1414H123.985C123.978 25.3927 123.816 24.7268 123.499 24.1437C123.183 23.5534 122.74 23.0891 122.171 22.7508C121.61 22.4124 120.955 22.2433 120.206 22.2433C119.407 22.2433 118.705 22.4376 118.1 22.8264C117.496 23.2079 117.024 23.7118 116.686 24.3381C116.355 24.9572 116.186 25.6375 116.178 26.3789V28.6789C116.178 29.6435 116.355 30.4714 116.707 31.1625C117.06 31.8463 117.553 32.3719 118.187 32.739C118.82 33.0989 119.562 33.2789 120.411 33.2789C120.98 33.2789 121.495 33.1997 121.955 33.0413C122.416 32.8758 122.816 32.6346 123.154 32.3179C123.492 32.0011 123.748 31.6088 123.921 31.1409L127.57 31.5512C127.34 32.5158 126.901 33.3581 126.253 34.0779C125.612 34.7906 124.792 35.3449 123.791 35.7408C122.79 36.1296 121.646 36.3239 120.357 36.3239ZM130.865 42.2197C130.332 42.2197 129.839 42.1765 129.386 42.0901C128.939 42.0109 128.583 41.9173 128.317 41.8094L129.224 38.7643C129.792 38.9299 130.3 39.0091 130.746 39.0019C131.193 38.9947 131.585 38.8543 131.923 38.5807C132.269 38.3144 132.56 37.8681 132.798 37.2418L133.133 36.3455L127.118 19.4142H131.265L135.087 31.9399H135.26L139.093 19.4142H143.25L136.61 38.0084C136.3 38.8867 135.89 39.6389 135.379 40.2652C134.868 40.8987 134.241 41.381 133.5 41.7122C132.766 42.0505 131.887 42.2197 130.865 42.2197ZM146.256 42.2197C145.724 42.2197 145.231 42.1765 144.777 42.0901C144.331 42.0109 143.974 41.9173 143.708 41.8094L144.615 38.7643C145.184 38.9299 145.691 39.0091 146.138 39.0019C146.584 38.9947 146.976 38.8543 147.315 38.5807C147.66 38.3144 147.952 37.8681 148.189 37.2418L148.524 36.3455L142.509 19.4142H146.656L150.478 31.9399H150.651L154.485 19.4142H158.642L152.001 38.0084C151.691 38.8867 151.281 39.6389 150.77 40.2652C150.259 40.8987 149.633 41.381 148.891 41.7122C148.157 42.0505 147.279 42.2197 146.256 42.2197ZM160.587 36.2376C159.932 36.2376 159.37 36.0072 158.902 35.5465C158.434 35.0858 158.204 34.5243 158.211 33.862C158.204 33.2141 158.434 32.6598 158.902 32.1991C159.37 31.7384 159.932 31.508 160.587 31.508C161.22 31.508 161.771 31.7384 162.239 32.1991C162.714 32.6598 162.955 33.2141 162.962 33.862C162.955 34.3011 162.84 34.7006 162.617 35.0606C162.401 35.4205 162.113 35.7085 161.753 35.9244C161.4 36.1332 161.012 36.2376 160.587 36.2376ZM169.642 36.3347C168.591 36.3347 167.645 36.1476 166.803 35.7732C165.967 35.3917 165.305 34.8302 164.816 34.0887C164.333 33.3473 164.092 32.433 164.092 31.346C164.092 30.4102 164.265 29.6363 164.611 29.0245C164.956 28.4126 165.428 27.9231 166.025 27.5559C166.623 27.1888 167.296 26.9116 168.044 26.7245C168.8 26.5301 169.581 26.3897 170.387 26.3033C171.359 26.2026 172.148 26.1126 172.752 26.0334C173.357 25.947 173.796 25.8174 174.07 25.6447C174.35 25.4647 174.491 25.1875 174.491 24.8132V24.7484C174.491 23.935 174.25 23.3051 173.767 22.8588C173.285 22.4124 172.59 22.1893 171.683 22.1893C170.726 22.1893 169.966 22.398 169.405 22.8156C168.851 23.2331 168.476 23.7262 168.282 24.2949L164.632 23.7766C164.92 22.7688 165.395 21.9265 166.057 21.2499C166.72 20.566 167.53 20.0549 168.487 19.7165C169.444 19.371 170.503 19.1982 171.662 19.1982C172.461 19.1982 173.256 19.2918 174.048 19.479C174.84 19.6661 175.563 19.9757 176.218 20.4076C176.874 20.8323 177.399 21.4118 177.795 22.1461C178.198 22.8804 178.4 23.7982 178.4 24.8996V36H174.642V33.7216H174.512C174.275 34.1823 173.94 34.6142 173.508 35.0174C173.083 35.4133 172.547 35.7336 171.899 35.9784C171.259 36.216 170.506 36.3347 169.642 36.3347ZM170.657 33.4625C171.442 33.4625 172.122 33.3077 172.698 32.9981C173.274 32.6814 173.717 32.2639 174.026 31.7456C174.343 31.2273 174.502 30.6622 174.502 30.0503V28.0958C174.379 28.1966 174.17 28.2902 173.875 28.3766C173.587 28.463 173.263 28.5385 172.903 28.6033C172.543 28.6681 172.187 28.7257 171.834 28.7761C171.482 28.8265 171.176 28.8697 170.917 28.9057C170.333 28.9849 169.812 29.1144 169.351 29.2944C168.89 29.4744 168.527 29.7263 168.26 30.0503C167.994 30.367 167.861 30.7773 167.861 31.2812C167.861 32.0011 168.123 32.5446 168.649 32.9118C169.175 33.2789 169.844 33.4625 170.657 33.4625ZM180.202 36V19.4142H184.111V36H180.202ZM182.167 17.0602C181.548 17.0602 181.015 16.855 180.569 16.4447C180.122 16.0272 179.899 15.5269 179.899 14.9438C179.899 14.3535 180.122 13.8532 180.569 13.4429C181.015 13.0253 181.548 12.8166 182.167 12.8166C182.793 12.8166 183.326 13.0253 183.765 13.4429C184.211 13.8532 184.434 14.3535 184.434 14.9438C184.434 15.5269 184.211 16.0272 183.765 16.4447C183.326 16.855 182.793 17.0602 182.167 17.0602Z" fill="white"/>
<g filter="url(#filter0_d_173_1832)">
<path d="M12.2168 28.034C12.2168 22.1834 12.2168 19.2581 13.3554 17.0235C14.3569 15.0578 15.9551 13.4597 17.9207 12.4581C20.1554 11.3195 23.0807 11.3195 28.9313 11.3195H30.433C36.2836 11.3195 39.2089 11.3195 41.4435 12.4581C43.4092 13.4597 45.0073 15.0578 46.0088 17.0235C47.1475 19.2581 47.1475 22.1834 47.1475 28.034V29.5357C47.1475 35.3863 47.1475 38.3116 46.0088 40.5463C45.0073 42.5119 43.4092 44.11 41.4435 45.1116C39.2089 46.2502 36.2836 46.2502 30.433 46.2502H28.9313C23.0807 46.2502 20.1554 46.2502 17.9207 45.1116C15.9551 44.11 14.3569 42.5119 13.3554 40.5463C12.2168 38.3116 12.2168 35.3863 12.2168 29.5357V28.034Z" fill="#FBFCFF"/>
<path d="M30.4326 10.8301C33.3498 10.8301 35.5675 10.8293 37.334 10.9736C39.1062 11.1184 40.4682 11.4111 41.666 12.0215C43.7237 13.0699 45.3968 14.7431 46.4453 16.8008C47.0556 17.9986 47.3484 19.3606 47.4932 21.1328C47.6375 22.8994 47.6367 25.117 47.6367 28.0342V29.5361C47.6367 32.453 47.6375 34.6701 47.4932 36.4365C47.3484 38.2087 47.0556 39.5707 46.4453 40.7686C45.3968 42.8263 43.7237 44.4994 41.666 45.5479C40.4682 46.1582 39.1063 46.4509 37.334 46.5957C35.5675 46.74 33.3498 46.7402 30.4326 46.7402H28.9316C26.0145 46.7402 23.7968 46.74 22.0303 46.5957C20.258 46.4509 18.8961 46.1582 17.6982 45.5479C15.6405 44.4994 13.9674 42.8263 12.9189 40.7686C12.3086 39.5707 12.0159 38.2087 11.8711 36.4365C11.7268 34.6701 11.7275 32.453 11.7275 29.5361V28.0342C11.7275 25.117 11.7268 22.8994 11.8711 21.1328C12.0159 19.3606 12.3086 17.9986 12.9189 16.8008C13.9674 14.7431 15.6405 13.0699 17.6982 12.0215C18.8961 11.4112 20.258 11.1184 22.0303 10.9736C23.7968 10.8293 26.0145 10.8301 28.9316 10.8301H30.4326Z" stroke="url(#paint0_linear_173_1832)" stroke-width="0.979364"/>
</g>
<path d="M22.5107 35.9561L37.2174 21.2494M37.2174 21.2494V35.9561M37.2174 21.2494H22.5107" stroke="#1E42FF" stroke-width="4.86842" stroke-linecap="round" stroke-linejoin="round"/>
<defs>
<filter id="filter0_d_173_1832" x="0.790751" y="1.19911" width="57.7828" height="57.7828" filterUnits="userSpaceOnUse" color-interpolation-filters="sRGB">
<feFlood flood-opacity="0" result="BackgroundImageFix"/>
<feColorMatrix in="SourceAlpha" type="matrix" values="0 0 0 0 0 0 0 0 0 0 0 0 0 0 0 0 0 0 127 0" result="hardAlpha"/>
<feOffset dy="1.30582"/>
<feGaussianBlur stdDeviation="5.22328"/>
<feComposite in2="hardAlpha" operator="out"/>
<feColorMatrix type="matrix" values="0 0 0 0 0.388235 0 0 0 0 0.54902 0 0 0 0 0.952941 0 0 0 0.32 0"/>
<feBlend mode="normal" in2="BackgroundImageFix" result="effect1_dropShadow_173_1832"/>
<feBlend mode="normal" in="SourceGraphic" in2="effect1_dropShadow_173_1832" result="shape"/>
</filter>
<linearGradient id="paint0_linear_173_1832" x1="28.465" y1="15.8226" x2="28.465" y2="50.7532" gradientUnits="userSpaceOnUse">
<stop stop-color="white"/>
<stop offset="1" stop-color="white"/>
</linearGradient>
</defs>
</svg>
