<svg width="159" height="46" viewBox="0 0 159 46" fill="none" xmlns="http://www.w3.org/2000/svg">
<path d="M55.4207 19.9747L52.493 20.2941C52.4101 19.9984 52.2652 19.7204 52.0582 19.4602C51.8571 19.1999 51.5851 18.9899 51.242 18.8303C50.899 18.6706 50.479 18.5907 49.9822 18.5907C49.3138 18.5907 48.752 18.7356 48.2965 19.0254C47.847 19.3153 47.6252 19.6908 47.6311 20.1522C47.6252 20.5484 47.7701 20.8708 48.0659 21.1192C48.3675 21.3676 48.8643 21.5717 49.5563 21.7314L51.8808 22.2282C53.1702 22.5062 54.1283 22.9468 54.7553 23.5501C55.3882 24.1534 55.7075 24.943 55.7135 25.9189C55.7075 26.7765 55.4562 27.5336 54.9593 28.1901C54.4684 28.8407 53.7853 29.3494 52.9099 29.7161C52.0346 30.0828 51.0291 30.2662 49.8935 30.2662C48.2256 30.2662 46.8829 29.9172 45.8656 29.2193C44.8483 28.5154 44.2421 27.5366 44.0469 26.2827L47.1787 25.981C47.3206 26.5961 47.6223 27.0604 48.0836 27.3739C48.5449 27.6874 49.1453 27.8441 49.8846 27.8441C50.6476 27.8441 51.2598 27.6874 51.7211 27.3739C52.1884 27.0604 52.422 26.673 52.422 26.2117C52.422 25.8213 52.2712 25.499 51.9695 25.2447C51.6738 24.9903 51.2124 24.7951 50.5855 24.6591L48.261 24.1711C46.9539 23.8991 45.9869 23.4407 45.3599 22.796C44.733 22.1454 44.4225 21.3233 44.4284 20.3296C44.4225 19.4897 44.6502 18.7622 45.1115 18.1471C45.5788 17.5261 46.2264 17.047 47.0545 16.7099C47.8884 16.3668 48.8496 16.1953 49.9378 16.1953C51.5348 16.1953 52.7916 16.5354 53.7084 17.2156C54.6311 17.8957 55.2018 18.8155 55.4207 19.9747ZM65.2985 24.2687V16.3727H68.5101V30H65.3961V27.578H65.2541C64.9466 28.341 64.4409 28.9649 63.737 29.4499C63.0391 29.9349 62.1785 30.1774 61.1553 30.1774C60.2622 30.1774 59.4726 29.9793 58.7865 29.583C58.1063 29.1808 57.574 28.5982 57.1896 27.8353C56.8051 27.0664 56.6129 26.1378 56.6129 25.0495V16.3727H59.8245V24.5526C59.8245 25.4162 60.0611 26.1023 60.5343 26.6109C61.0075 27.1196 61.6285 27.3739 62.3974 27.3739C62.8706 27.3739 63.3289 27.2586 63.7725 27.0279C64.2161 26.7972 64.5799 26.4542 64.8638 25.9988C65.1536 25.5374 65.2985 24.9608 65.2985 24.2687ZM70.0639 30V16.3727H73.1779V18.6439H73.3199C73.5683 17.8573 73.9941 17.2511 74.5974 16.8252C75.2066 16.3934 75.9016 16.1776 76.6823 16.1776C76.8598 16.1776 77.0579 16.1864 77.2767 16.2042C77.5015 16.216 77.6878 16.2367 77.8357 16.2663V19.2206C77.6996 19.1733 77.4838 19.1319 77.188 19.0964C76.8982 19.055 76.6173 19.0343 76.3452 19.0343C75.7596 19.0343 75.2332 19.1615 74.766 19.4158C74.3047 19.6642 73.9409 20.0102 73.6747 20.4538C73.4086 20.8974 73.2755 21.409 73.2755 21.9887V30H70.0639ZM90.8076 16.3727L85.9546 30H82.4059L77.5529 16.3727H80.9775L84.1093 26.4956H84.2512L87.3919 16.3727H90.8076ZM96.8505 30.2662C95.4842 30.2662 94.3043 29.9823 93.3106 29.4145C92.3229 28.8407 91.5628 28.0304 91.0305 26.9835C90.4982 25.9307 90.2321 24.6916 90.2321 23.2662C90.2321 21.8645 90.4982 20.6342 91.0305 19.5755C91.5688 18.5109 92.3199 17.6828 93.284 17.0914C94.2481 16.494 95.3807 16.1953 96.6819 16.1953C97.5218 16.1953 98.3144 16.3313 99.0596 16.6034C99.8108 16.8696 100.473 17.2836 101.047 17.8455C101.627 18.4074 102.082 19.123 102.413 19.9925C102.744 20.856 102.91 21.8852 102.91 23.0799V24.0647H91.7403V21.8999H99.8315C99.8256 21.2848 99.6925 20.7377 99.4322 20.2586C99.172 19.7736 98.8082 19.3921 98.341 19.1142C97.8796 18.8362 97.3414 18.6972 96.7263 18.6972C96.0698 18.6972 95.4931 18.8569 94.9963 19.1763C94.4994 19.4897 94.112 19.9038 93.8341 20.4183C93.562 20.927 93.423 21.4859 93.4171 22.0951V23.9848C93.4171 24.7774 93.562 25.4576 93.8518 26.0254C94.1416 26.5873 94.5468 27.019 95.0672 27.3207C95.5877 27.6164 96.1969 27.7643 96.8949 27.7643C97.3621 27.7643 97.785 27.6992 98.1635 27.5691C98.5421 27.4331 98.8703 27.2349 99.1483 26.9747C99.4263 26.7144 99.6363 26.3921 99.7782 26.0076L102.777 26.3448C102.588 27.1373 102.227 27.8293 101.695 28.4208C101.168 29.0063 100.494 29.4618 99.6718 29.7871C98.8496 30.1065 97.9092 30.2662 96.8505 30.2662ZM105.484 35.1102C105.046 35.1102 104.641 35.0747 104.269 35.0038C103.902 34.9387 103.609 34.8618 103.39 34.7731L104.136 32.2712C104.603 32.4072 105.02 32.4723 105.386 32.4664C105.753 32.4605 106.075 32.3451 106.353 32.1204C106.637 31.9015 106.877 31.5348 107.072 31.0203L107.347 30.2839L102.405 16.3727H105.812L108.953 26.6642H109.095L112.244 16.3727H115.66L110.204 31.6502C109.95 32.3718 109.612 32.9898 109.192 33.5044C108.773 34.0249 108.258 34.4212 107.649 34.6932C107.045 34.9712 106.324 35.1102 105.484 35.1102ZM118.13 35.1102C117.692 35.1102 117.287 35.0747 116.914 35.0038C116.548 34.9387 116.255 34.8618 116.036 34.7731L116.781 32.2712C117.249 32.4072 117.666 32.4723 118.032 32.4664C118.399 32.4605 118.721 32.3451 118.999 32.1204C119.283 31.9015 119.523 31.5348 119.718 31.0203L119.993 30.2839L115.051 16.3727H118.458L121.599 26.6642H121.741L124.89 16.3727H128.306L122.85 31.6502C122.595 32.3718 122.258 32.9898 121.838 33.5044C121.418 34.0249 120.904 34.4212 120.295 34.6932C119.691 34.9712 118.97 35.1102 118.13 35.1102ZM129.904 30.1952C129.366 30.1952 128.905 30.0059 128.52 29.6274C128.136 29.2488 127.946 28.7875 127.952 28.2434C127.946 27.711 128.136 27.2556 128.52 26.8771C128.905 26.4985 129.366 26.3093 129.904 26.3093C130.425 26.3093 130.877 26.4985 131.261 26.8771C131.652 27.2556 131.85 27.711 131.856 28.2434C131.85 28.6042 131.755 28.9324 131.572 29.2281C131.395 29.5239 131.158 29.7605 130.862 29.9379C130.572 30.1094 130.253 30.1952 129.904 30.1952ZM137.344 30.275C136.481 30.275 135.703 30.1212 135.011 29.8137C134.325 29.5002 133.781 29.0389 133.379 28.4297C132.982 27.8205 132.784 27.0693 132.784 26.1762C132.784 25.4073 132.926 24.7715 133.21 24.2687C133.494 23.766 133.881 23.3638 134.372 23.0622C134.863 22.7605 135.416 22.5328 136.031 22.379C136.652 22.2193 137.294 22.104 137.956 22.033C138.755 21.9502 139.403 21.8763 139.899 21.8112C140.396 21.7402 140.757 21.6338 140.982 21.4918C141.212 21.344 141.328 21.1163 141.328 20.8087V20.7555C141.328 20.0871 141.13 19.5696 140.733 19.2029C140.337 18.8362 139.766 18.6528 139.021 18.6528C138.234 18.6528 137.61 18.8243 137.149 19.1674C136.694 19.5104 136.386 19.9156 136.226 20.3828L133.228 19.957C133.464 19.1289 133.855 18.4369 134.399 17.881C134.943 17.3191 135.608 16.8991 136.395 16.6211C137.182 16.3372 138.051 16.1953 139.003 16.1953C139.66 16.1953 140.313 16.2722 140.964 16.426C141.615 16.5797 142.209 16.8341 142.747 17.1889C143.286 17.5379 143.717 18.014 144.043 18.6173C144.374 19.2206 144.539 19.9747 144.539 20.8797V30H141.452V28.128H141.346C141.15 28.5066 140.875 28.8614 140.52 29.1927C140.172 29.518 139.731 29.7812 139.199 29.9823C138.672 30.1774 138.054 30.275 137.344 30.275ZM138.178 27.9151C138.823 27.9151 139.382 27.7879 139.855 27.5336C140.328 27.2734 140.692 26.9303 140.946 26.5045C141.207 26.0786 141.337 25.6143 141.337 25.1116V23.5058C141.236 23.5886 141.065 23.6655 140.822 23.7364C140.586 23.8074 140.319 23.8695 140.024 23.9227C139.728 23.976 139.435 24.0233 139.145 24.0647C138.856 24.1061 138.604 24.1416 138.391 24.1711C137.912 24.2362 137.483 24.3427 137.105 24.4905C136.726 24.6384 136.428 24.8454 136.209 25.1116C135.99 25.3718 135.88 25.7089 135.88 26.123C135.88 26.7144 136.096 27.161 136.528 27.4626C136.96 27.7643 137.51 27.9151 138.178 27.9151ZM146.02 30V16.3727H149.232V30H146.02ZM147.635 14.4387C147.126 14.4387 146.688 14.2701 146.322 13.933C145.955 13.5899 145.772 13.1788 145.772 12.6998C145.772 12.2148 145.955 11.8037 146.322 11.4666C146.688 11.1235 147.126 10.952 147.635 10.952C148.149 10.952 148.587 11.1235 148.948 11.4666C149.314 11.8037 149.498 12.2148 149.498 12.6998C149.498 13.1788 149.314 13.5899 148.948 13.933C148.587 14.2701 148.149 14.4387 147.635 14.4387Z" fill="#1E42FF"/>
<g filter="url(#filter0_d_193_3064)">
<rect x="6" y="8" width="32" height="32" rx="8" fill="white"/>
<rect x="5.7" y="7.7" width="32.6" height="32.6" rx="8.3" stroke="#F0F0F0" stroke-width="0.6"/>
</g>
<path d="M16.167 30.833L27.8337 19.1663M27.8337 19.1663V30.833M27.8337 19.1663H16.167" stroke="#1E42FF" stroke-width="4" stroke-linecap="round" stroke-linejoin="round"/>
<defs>
<filter id="filter0_d_193_3064" x="0.400391" y="2.40039" width="43.1992" height="43.1992" filterUnits="userSpaceOnUse" color-interpolation-filters="sRGB">
<feFlood flood-opacity="0" result="BackgroundImageFix"/>
<feColorMatrix in="SourceAlpha" type="matrix" values="0 0 0 0 0 0 0 0 0 0 0 0 0 0 0 0 0 0 127 0" result="hardAlpha"/>
<feMorphology radius="3" operator="erode" in="SourceAlpha" result="effect1_dropShadow_193_3064"/>
<feOffset/>
<feGaussianBlur stdDeviation="4"/>
<feComposite in2="hardAlpha" operator="out"/>
<feColorMatrix type="matrix" values="0 0 0 0 0 0 0 0 0 0 0 0 0 0 0 0 0 0 0.35 0"/>
<feBlend mode="normal" in2="BackgroundImageFix" result="effect1_dropShadow_193_3064"/>
<feBlend mode="normal" in="SourceGraphic" in2="effect1_dropShadow_193_3064" result="shape"/>
</filter>
</defs>
</svg>
